<svg xmlns="http://www.w3.org/2000/svg" xmlns:xlink="http://www.w3.org/1999/xlink" id="Layer_1" x="0" y="0" version="1.1" viewBox="0 0 40 40" style="enable-background:new 0 0 40 40" xml:space="preserve"><style type="text/css">.st0{fill:url(#SVGID_1_)}.st1{fill:#fff;stroke:#fff;stroke-width:.5;stroke-miterlimit:10}</style><linearGradient id="SVGID_1_" x1="-12.583" x2="24.709" y1="1339.178" y2="1339.178" gradientTransform="matrix(0 1 1 0 -1319.1785 13.9581)" gradientUnits="userSpaceOnUse"><stop offset="0" style="stop-color:#00a4df"/><stop offset="1" style="stop-color:#1468d7"/></linearGradient><path d="M37,26.3V13.7c0-2.1-1.1-4.1-3-5.2L23,2.2c-1.9-1.1-4.1-1.1-6,0L6,8.5c-1.9,1.1-3,3.1-3,5.2v12.6	c0,2.1,1.1,4.1,3,5.2l11,6.3c1.9,1.1,4.1,1.1,6,0l11-6.3C35.8,30.4,37,28.5,37,26.3z" class="st0"/><title>ftx--logo</title><path id="Shape" d="M20,9.6L20,9.6c3,2,6,4.1,9,6.1c0,0.9,0,1.8,0,2.7c0,0.3-0.3,0.6-0.6,0.6c-0.3,0-0.6-0.3-0.7-0.6	c0-0.7,0-1.4,0-2c-2.6-1.7-5.2-3.5-7.7-5.2c-2.6,1.7-5.2,3.5-7.7,5.2c0,0.7,0,1.4,0,2c0,0.3-0.3,0.6-0.6,0.6s-0.6-0.3-0.6-0.6	c0-0.9,0-1.8,0-2.7C14,13.7,17,11.7,20,9.6z" class="st1"/><path d="M17.8,16.9c1.2-0.9,2.9-0.9,4.1-0.2c0.7,0.4,1.3,1,1.6,1.7c0.4,0.8,0.4,1.7,0.2,2.6c-0.2,0.7-0.6,1.4-1.2,1.9	c-0.5,0.5-1.2,0.8-1.9,0.9c0,1.1,0,2.3,0,3.4c0,0.4,0,0.8,0,1.3c2.4-1.6,4.7-3.2,7.1-4.8c0-0.7,0-1.4,0-2c0-0.3,0.3-0.6,0.7-0.6	c0.3,0,0.6,0.3,0.6,0.6c0,0.9,0,1.8,0,2.7c-3,2-6,4.1-9,6.1c-3-2-6-4.1-9-6.1c0-0.9,0-1.8,0-2.7c0-0.3,0.3-0.6,0.6-0.6	s0.6,0.3,0.6,0.6c0,0.7,0,1.4,0,2c2.4,1.6,4.7,3.2,7.1,4.8c0-0.4,0-0.8,0-1.3c0-1.1,0-2.3,0-3.4c-1.2-0.2-2.3-1-2.8-2.1	c-0.4-0.9-0.5-1.9-0.2-2.8C16.6,18.1,17.1,17.4,17.8,16.9z M19.5,17.5c-0.7,0.1-1.3,0.6-1.7,1.2c-0.4,0.6-0.5,1.3-0.3,2	c0.2,0.8,0.8,1.5,1.6,1.8c0.4,0.2,0.9,0.2,1.3,0.2c0.7-0.1,1.4-0.5,1.8-1.2c0.4-0.6,0.5-1.3,0.3-2s-0.6-1.3-1.3-1.7	C20.7,17.5,20.1,17.4,19.5,17.5z" class="st1"/></svg>