<svg xmlns="http://www.w3.org/2000/svg" xmlns:xlink="http://www.w3.org/1999/xlink" id="Layer_1" x="0" y="0" version="1.1" viewBox="0 0 40 40" style="enable-background:new 0 0 40 40" xml:space="preserve"><style type="text/css">.st0{fill:url(#SVGID_1_)}.st1{fill:#fff}.st2{fill:url(#SVGID_2_)}.st3{fill:url(#SVGID_3_)}.st4{fill:url(#SVGID_4_)}.st5{fill:url(#SVGID_5_)}.st6{fill:url(#SVGID_6_)}.st7{fill:url(#SVGID_7_)}</style><linearGradient id="SVGID_1_" x1="438.586" x2="475.875" y1="2392.18" y2="2392.18" gradientTransform="matrix(6.123234e-17 1 1 -6.123234e-17 -2372.1802 -437.31)" gradientUnits="userSpaceOnUse"><stop offset="0" style="stop-color:#c8baec"/><stop offset="1" style="stop-color:#f9a6f4"/></linearGradient><path d="M37,26.2V13.6c0-2.1-1.1-4.1-3-5.2L23,2.1c-1.8-1.1-4.2-1.1-6,0L6,8.4c-1.9,1.1-3,3.1-3,5.2v12.6	c0,2.1,1.1,4.1,3,5.2l11,6.3c1.8,1.1,4.2,1.1,6,0l11-6.3C35.8,30.3,37,28.3,37,26.2z" class="st0"/><g><path d="M17.6,17.2c0.3,0.1,0.6,0.3,0.9,0.4c1.4,0.5,2.8,0.5,4.4-0.2c-0.3,0.2-0.6,0.5-0.8,0.7c-1,1.1-1.5,2.5-1.7,4.1 C20.2,20,19.2,18.1,17.6,17.2z" class="st1"/><linearGradient id="SVGID_2_" x1="11.766" x2="24.127" y1="33.384" y2="24.717" gradientTransform="matrix(1 0 0 -1 0 42)" gradientUnits="userSpaceOnUse"><stop offset=".243" style="stop-color:#ff51f4"/><stop offset=".394" style="stop-color:#fa77f9"/><stop offset=".534" style="stop-color:#f692fc"/><stop offset=".657" style="stop-color:#f4a2fe"/><stop offset=".752" style="stop-color:#f3a8ff"/></linearGradient><path d="M27.8,14.5c-2.1,1.3-3.6,2.3-4.9,2.9c-1.7,0.7-3.1,0.8-5.3-0.2l0,0c-1.2-0.5-2.6-1.3-4.3-2.4l0,0 c-0.8-0.5-1.7-1.1-2.6-1.7c0.1-0.2,0.3-0.3,0.4-0.4l3.7-2.1c0.3-0.2,0.7-0.2,1,0l4.6,2.5l0.1,0C23.3,15,25.3,15.5,27.8,14.5z" class="st2"/><linearGradient id="SVGID_3_" x1="19.627" x2="15.784" y1="10.44" y2="26.5" gradientTransform="matrix(1 0 0 -1 0 42)" gradientUnits="userSpaceOnUse"><stop offset=".238" style="stop-color:#a57dff"/><stop offset=".401" style="stop-color:#c293ff"/><stop offset=".616" style="stop-color:#e2acff"/><stop offset=".735" style="stop-color:#eeb5ff"/></linearGradient><path d="M20.3,30.2c0-0.6,0-1.2,0-1.7l0,0l0,0l0,0l0,0c0-0.1,0-0.2,0-0.2c0,0,0,0,0-0.1c0-0.1,0-0.1,0-0.2 c0-4.2,0-4.3,0.1-5.7c0,0,0,0,0,0c0,0,0,0,0,0c-0.1-2.1-1.2-4.1-2.8-4.9l0,0c-1.2-0.5-2.6-1.3-4.3-2.4c1.8,1.7,2.3,3.8,2.1,6.9v4.9 c0,0.5,0.3,0.9,0.7,1.2l3.9,2.3C20.1,30.2,20.2,30.2,20.3,30.2L20.3,30.2z" class="st3"/><linearGradient id="SVGID_4_" x1="20.02" x2="31.799" y1="16.963" y2="25.953" gradientTransform="matrix(1 0 0 -1 0 42)" gradientUnits="userSpaceOnUse"><stop offset="0" style="stop-color:#d7b2ff"/><stop offset=".21" style="stop-color:#d9aaff"/><stop offset=".544" style="stop-color:#df92ff"/><stop offset=".847" style="stop-color:#e678ff"/></linearGradient><path d="M20.3,30.2L20.3,30.2c-0.3-4.1,1.2-6.2,3.7-7.7c0,0,0.1,0,0.1-0.1c0,0,0.1,0,0.1-0.1c0.1,0,0.2-0.1,0.2-0.1 c0.3-0.1,0.5-0.3,0.8-0.4l0,0l4.5-2.8c0.3-0.2,0.5-0.5,0.5-0.9V14c0-0.3-0.1-0.5-0.2-0.7c-0.9,0.6-1.7,1-2.4,1.3 c-2.1,1.3-3.6,2.3-4.9,2.9c-1.6,1.3-2.3,2.3-2.5,4.8c0,0,0,0,0,0c0,0,0,0,0,0c-0.1,1.4-0.1,3.2-0.1,5.7c0,0.1,0,0.1,0,0.2 c0,0,0,0,0,0.1c0,0.1,0,0.2,0,0.2l0,0l0,0l0,0l0,0v0C20.3,29.1,20.3,29.6,20.3,30.2L20.3,30.2L20.3,30.2z" class="st4"/><linearGradient id="SVGID_5_" x1="21.661" x2="24.55" y1="10.125" y2="22.032" gradientTransform="matrix(1 0 0 -1 0 42)" gradientUnits="userSpaceOnUse"><stop offset=".429" style="stop-color:#a076ff"/><stop offset=".466" style="stop-color:#a374ff"/><stop offset=".825" style="stop-color:#bb5fff"/></linearGradient><path d="M20.3,30.2c0.2,0,0.3,0,0.4-0.1l3.9-2.3c0.4-0.2,0.7-0.7,0.7-1.2l0-4.8c-0.3,0.1-0.6,0.3-0.8,0.4 c-0.1,0-0.2,0.1-0.2,0.1c0,0-0.1,0-0.1,0.1c0,0-0.1,0-0.1,0.1c-2.2,1.3-3.8,2.6-3.8,6l0,0l0,0v0C20.3,29,20.3,29.6,20.3,30.2 C20.3,30.2,20.3,30.2,20.3,30.2z" class="st5"/><linearGradient id="SVGID_6_" x1="25.415" x2="25.218" y1="33.578" y2="26.374" gradientTransform="matrix(1 0 0 -1 0 42)" gradientUnits="userSpaceOnUse"><stop offset=".404" style="stop-color:#ff4df6"/><stop offset=".652" style="stop-color:#f832ff"/></linearGradient><path d="M30.2,13.2c-0.9,0.6-1.7,1-2.4,1.3c-2.5,1-4.5,0.5-7.4-1.4l4.6-2.5c0.3-0.2,0.7-0.2,1,0l3.7,2.1 C29.9,12.9,30.1,13,30.2,13.2z" class="st6"/><linearGradient id="SVGID_7_" x1="10.383" x2="15.422" y1="24.546" y2="24.546" gradientTransform="matrix(1 0 0 -1 0 42)" gradientUnits="userSpaceOnUse"><stop offset=".188" style="stop-color:#e475ff"/><stop offset=".585" style="stop-color:#d95fff"/></linearGradient><path d="M15.4,21.8L10.9,19c-0.3-0.2-0.5-0.5-0.5-0.9V14c0-0.3,0.1-0.6,0.3-0.8c1,0.6,1.8,1.2,2.6,1.7l0,0 C15,16.6,15.6,18.6,15.4,21.8z" class="st7"/></g><title>Asset 1</title></svg>