<svg xmlns="http://www.w3.org/2000/svg" xmlns:xlink="http://www.w3.org/1999/xlink" id="Layer_1" x="0" y="0" version="1.1" viewBox="0 0 40 40" style="enable-background:new 0 0 40 40" xml:space="preserve"><style type="text/css">.st0{fill:url(#SVGID_1_)}.st1{fill:#fff}</style><linearGradient id="SVGID_1_" x1="-12.383" x2="24.909" y1="-547.178" y2="-547.178" gradientTransform="matrix(0 1 -1 0 -527.1784 13.9581)" gradientUnits="userSpaceOnUse"><stop offset="0" style="stop-color:#4a4e68"/><stop offset=".995" style="stop-color:#343158"/></linearGradient><path d="M37,26.5V13.9c0-2.1-1.1-4.1-3-5.2L23,2.4c-1.9-1.1-4.1-1.1-6,0L6,8.7c-1.9,1.1-3,3.1-3,5.2v12.6	c0,2.1,1.1,4.1,3,5.2L17,38c1.9,1.1,4.1,1.1,6,0l11-6.3C35.8,30.6,37,28.7,37,26.5z" class="st0"/><title>Asset 1</title><title>Asset 1</title><g><path d="M22.9,16.4c-0.2,0-0.4,0-0.5,0c-0.7,0.1-1.5,0.2-2.3,0.2s-1.6-0.1-2.3-0.2c-0.2,0-0.4,0-0.5,0 c-3,0.4-5.2,1.3-5.2,2.5c0,1.4,3.5,2.6,7.9,2.6s7.9-1.1,7.9-2.6C28.1,17.7,26,16.7,22.9,16.4z" class="st1"/><path d="M25.1,21.8c-0.4-0.1-0.7-0.1-1.1,0c-1.1,0.2-2.5,0.4-3.9,0.4s-2.7-0.1-3.9-0.4c-0.4-0.1-0.7-0.1-1.1,0 c-3,0.5-5.1,1.7-5.1,2.9c0,1.8,4.5,3.3,10,3.3s10-1.5,10-3.3C30.2,23.4,28.1,22.3,25.1,21.8z" class="st1"/><ellipse cx="20" cy="14" class="st1" rx="6" ry="2"/></g></svg>