<svg xmlns="http://www.w3.org/2000/svg" xmlns:xlink="http://www.w3.org/1999/xlink" id="Layer_1" x="0" y="0" version="1.1" viewBox="0 0 40 40" style="enable-background:new 0 0 40 40" xml:space="preserve"><style type="text/css">.st0{fill:url(#SVGID_1_)}.st1{fill:#fff}</style><linearGradient id="SVGID_1_" x1="-92.583" x2="-55.291" y1="681.178" y2="681.178" gradientTransform="matrix(0 1 1 0 -661.1784 93.9581)" gradientUnits="userSpaceOnUse"><stop offset="0" style="stop-color:#fef20d"/><stop offset="1" style="stop-color:#f3ba2f"/></linearGradient><path d="M37,26.3V13.7c0-2.1-1.1-4.1-3-5.2L23,2.2c-1.9-1.1-4.1-1.1-6,0L6,8.5c-1.9,1.1-3,3.1-3,5.2v12.6	c0,2.1,1.1,4.1,3,5.2l11,6.3c1.9,1.1,4.1,1.1,6,0l11-6.3C35.8,30.4,37,28.5,37,26.3z" class="st0"/><g><path d="M15.9,18.3l4.1-4.1l4.1,4.1l2.4-2.4L20,9.5L13.5,16L15.9,18.3 M9.4,20l2.4-2.4l2.4,2.4l-2.4,2.4L9.4,20z M15.9,21.7l4.1,4.1l4.1-4.1l2.4,2.4l0,0L20,30.5L13.5,24l0,0L15.9,21.7 M25.9,20l2.4-2.4l2.4,2.4l-2.4,2.4L25.9,20z" class="st1"/><path d="M22.5,20L22.5,20L20,17.5l-1.8,1.8L18,19.5L17.5,20l0,0l0,0l2.5,2.5L22.5,20L22.5,20L22.5,20" class="st1"/></g></svg>