<svg xmlns="http://www.w3.org/2000/svg" xmlns:xlink="http://www.w3.org/1999/xlink" id="Layer_1" x="0" y="0" version="1.1" viewBox="0 0 40 40" style="enable-background:new 0 0 40 40" xml:space="preserve"><style type="text/css">.st0{fill:url(#SVGID_1_)}.st1{fill:#fff}</style><linearGradient id="SVGID_1_" x1="-12.583" x2="24.709" y1="-547.178" y2="-547.178" gradientTransform="matrix(0 1 -1 0 -527.1784 13.9581)" gradientUnits="userSpaceOnUse"><stop offset=".001" style="stop-color:#277cee"/><stop offset="1" style="stop-color:#0e50bc"/></linearGradient><path d="M37,26.3V13.7c0-2.1-1.1-4.1-3-5.2L23,2.2c-1.9-1.1-4.1-1.1-6,0L6,8.5c-1.9,1.1-3,3.1-3,5.2v12.6	c0,2.1,1.1,4.1,3,5.2l11,6.3c1.9,1.1,4.1,1.1,6,0l11-6.3C35.8,30.4,37,28.5,37,26.3z" class="st0"/><title>Asset 1</title><title>Asset 1</title><path d="M19.9,9.1l-5,3l5,3l5.2-3L19.9,9.1z M20.8,24.9v5.9l6.8-3.9V21L20.8,24.9z M25.9,14v5.9l-5.2,3V17L25.9,14z M13.6,19.9l5.2,3V17l-5.2-3V19.9z M13.6,27.9l5.2,3V25l-5.2-3V27.9L13.6,27.9L13.6,27.9z" class="st1"/></svg>