<svg xmlns="http://www.w3.org/2000/svg" xmlns:xlink="http://www.w3.org/1999/xlink" id="Layer_1" x="0" y="0" version="1.1" viewBox="0 0 40 40" style="enable-background:new 0 0 40 40" xml:space="preserve"><style type="text/css">.st0{fill:url(#SVGID_1_)}.st1{fill:#fff}</style><linearGradient id="SVGID_1_" x1="77.417" x2="114.709" y1="1249.178" y2="1249.178" gradientTransform="matrix(0 1 1 0 -1229.1785 -76.0419)" gradientUnits="userSpaceOnUse"><stop offset="0" style="stop-color:#4d638d"/><stop offset="1" style="stop-color:#262f54"/></linearGradient><path d="M37,26.3V13.7c0-2.1-1.1-4.1-3-5.2L23,2.2c-1.9-1.1-4.1-1.1-6,0L6,8.5c-1.9,1.1-3,3.1-3,5.2v12.6	c0,2.1,1.1,4.1,3,5.2l11,6.3c1.9,1.1,4.1,1.1,6,0l11-6.3C35.8,30.4,37,28.5,37,26.3z" class="st0"/><g id="Layer_2_1_"><g id="Layer_1-2"><path d="M20.3,9.2l-4.9,6.7l-2,9.9l6.9,4.2l6.9-4.2l-2.1-10L20.3,9.2z M14.5,25.4l1.5-7.5l3.5,10.6L14.5,25.4z M16.6,16.1l3.7-5.2l3.7,5.2l-3.7,11.4L16.6,16.1z M21,28.5l3.5-10.6l1.5,7.5L21,28.5z" class="st1"/></g></g></svg>