<svg xmlns="http://www.w3.org/2000/svg" xmlns:xlink="http://www.w3.org/1999/xlink" id="Layer_1" x="0" y="0" version="1.1" viewBox="0 0 40 40" style="enable-background:new 0 0 40 40" xml:space="preserve"><style type="text/css">.st0{fill:url(#SVGID_1_)}.st1{fill:#fff}</style><linearGradient id="SVGID_1_" x1="-12.583" x2="24.709" y1="-547.178" y2="-547.178" gradientTransform="matrix(0 1 -1 0 -527.1784 13.9581)" gradientUnits="userSpaceOnUse"><stop offset="0" style="stop-color:#ff767d"/><stop offset="1" style="stop-color:#ea5051"/></linearGradient><path d="M37,26.3V13.7c0-2.1-1.1-4.1-3-5.2L23,2.2c-1.9-1.1-4.1-1.1-6,0L6,8.5c-1.9,1.1-3,3.1-3,5.2v12.6	c0,2.1,1.1,4.1,3,5.2l11,6.3c1.9,1.1,4.1,1.1,6,0l11-6.3C35.8,30.4,37,28.5,37,26.3z" class="st0"/><title>ftx--logo</title><path d="M30.1,16l-6.3,3.3v3.8l2.2-1.2v2.2l-6.1,3.5L15,24.8c-0.7-0.4-1.2-1.2-1.2-2.1V17l5.1-2.9	c0.6-0.4,1.4-0.4,2.1,0l5.1,2.9l3.1-1.8l-7.9-4.6c-0.8-0.5-1.8-0.5-2.6,0l-7.9,4.6v9.2c0,0.9,0.5,1.7,1.2,2.1l8,4.6l8-4.6	c0.8-0.4,1.2-1.2,1.2-2.1v-4.3l1-0.5L30.1,16L30.1,16z" class="st1"/></svg>