<svg xmlns="http://www.w3.org/2000/svg" xmlns:xlink="http://www.w3.org/1999/xlink" id="Layer_1" x="0" y="0" version="1.1" viewBox="0 0 40 40" style="enable-background:new 0 0 40 40" xml:space="preserve"><style type="text/css">.st0{fill:url(#SVGID_1_)}.st1{fill:#fff}.st2{fill:#f3f3f3}</style><linearGradient id="SVGID_1_" x1="-102.566" x2="-65.274" y1="678.568" y2="678.568" gradientTransform="matrix(0 1 1 0 -659.1784 103.9581)" gradientUnits="userSpaceOnUse"><stop offset=".001" style="stop-color:#6ebef2"/><stop offset="1" style="stop-color:#0064ec"/></linearGradient><path d="M36.4,26.3V13.7c0-2.1-1.1-4.1-3-5.2l-11-6.3c-1.9-1.1-4.1-1.1-6,0l-11,6.3c-1.9,1.1-3,3.1-3,5.2v12.6	c0,2.1,1.1,4.1,3,5.2l11,6.3c1.9,1.1,4.1,1.1,6,0l11-6.3C35.2,30.4,36.4,28.5,36.4,26.3z" class="st0"/><title>okb-okb-logo</title><g id="Path-raw_1_"><circle id="Oval_1_" cx="19.4" cy="14.2" r="4.8" class="st1"/><circle id="Oval-Copy_1_" cx="19.4" cy="25.8" r="4.8" class="st1"/><circle id="Oval-Copy-2_1_" cx="25.2" cy="20" r="4.8" class="st1"/><circle id="Oval-Copy-3_1_" cx="13.6" cy="20" r="4.8" class="st1"/><path id="Combined-Shape_1_" d="M18.3,18.9c-1.7-0.4-3.1-1.8-3.5-3.5C16.5,15.8,17.8,17.2,18.3,18.9z" class="st2"/><path id="Combined-Shape-2_1_" d="M14.7,24.7c0.4-1.7,1.8-3.1,3.5-3.5C17.8,22.9,16.5,24.2,14.7,24.7z" class="st2"/><path id="Combined-Shape-3_1_" d="M20.5,21.1c1.7,0.4,3.1,1.8,3.5,3.5C22.3,24.2,20.9,22.9,20.5,21.1z" class="st2"/><path id="Combined-Shape-4_1_" d="M24.1,15.4c-0.4,1.7-1.8,3.1-3.5,3.5C21,17.1,22.3,15.8,24.1,15.4z" class="st2"/></g></svg>