<svg xmlns="http://www.w3.org/2000/svg" xmlns:xlink="http://www.w3.org/1999/xlink" id="Layer_1" x="0" y="0" version="1.1" viewBox="0 0 40 40" style="enable-background:new 0 0 40 40" xml:space="preserve"><style type="text/css">.st0{fill:url(#SVGID_1_)}.st1{fill:#fff}</style><linearGradient id="SVGID_1_" x1="-2.604" x2="34.688" y1="20.822" y2="20.822" gradientTransform="matrix(6.123234e-17 1 -1 6.123234e-17 40.8216 3.9581)" gradientUnits="userSpaceOnUse"><stop offset="0" style="stop-color:#00caff"/><stop offset="1" style="stop-color:#005fff"/></linearGradient><path d="M37,26.3V13.7c0-2.1-1.1-4.1-3-5.2L23,2.2c-1.9-1.1-4.1-1.1-6,0L6,8.5c-1.9,1.1-3,3.1-3,5.2v12.6	c0,2.1,1.1,4.1,3,5.2l11,6.3c1.9,1.1,4.1,1.1,6,0l11-6.3C35.8,30.4,37,28.5,37,26.3z" class="st0"/><g><polygon points="20.6 9.5 20.6 21.1 26.1 27.1 29.2 25.4" class="st1"/><polygon points="19.4 9.5 10.8 25.4 13.9 27.1 19.4 21.1" class="st1"/><polygon points="15.1 27.7 20 30.5 24.9 27.7 20 22.4" class="st1"/></g></svg>