<svg xmlns="http://www.w3.org/2000/svg" xmlns:xlink="http://www.w3.org/1999/xlink" id="Layer_1" x="0" y="0" version="1.1" viewBox="0 0 40 40" style="enable-background:new 0 0 40 40" xml:space="preserve"><style type="text/css">.st0{fill:url(#SVGID_1_)}.st1{fill:#fff}</style><linearGradient id="SVGID_1_" x1="-102.583" x2="-65.291" y1="679.178" y2="679.178" gradientTransform="matrix(0 1 1 0 -659.1784 103.9581)" gradientUnits="userSpaceOnUse"><stop offset=".001" style="stop-color:#00a7ec"/><stop offset="1" style="stop-color:#093e72"/></linearGradient><path d="M37,26.3V13.7c0-2.1-1.1-4.1-3-5.2L23,2.2c-1.9-1.1-4.1-1.1-6,0L6,8.5c-1.9,1.1-3,3.1-3,5.2v12.6	c0,2.1,1.1,4.1,3,5.2l11,6.3c1.9,1.1,4.1,1.1,6,0l11-6.3C35.8,30.4,37,28.5,37,26.3z" class="st0"/><g><path d="M14.5,19.7c0-0.1,0-0.1,0-0.2c0-4.8,3.9-8.6,8.6-8.6c2.5,0,4.8,1.1,6.3,2.8c-1.9-2.7-5-4.4-8.4-4.4 c-5.7,0-10.3,4.6-10.3,10.3c0,0.1,0,0.1,0,0.2H14.5z" class="st1"/><path d="M23.6,14.9c0.1,0,0.1,0.1,0.2,0.1c4.1,2.5,5.4,7.8,3,11.9c-1.3,2.1-3.4,3.5-5.6,4c3.2-0.2,6.3-2,8.1-5 c2.9-4.9,1.3-11.2-3.5-14.1c-0.1,0-0.1-0.1-0.2-0.1L23.6,14.9z" class="st1"/><path d="M23.1,25.1c-0.1,0-0.1,0.1-0.2,0.1c-4.1,2.4-9.4,1-11.8-3.1c-1.3-2.2-1.5-4.6-0.8-6.9c-1.4,3-1.3,6.5,0.5,9.5 c2.9,4.9,9.2,6.5,14.1,3.7c0.1,0,0.1-0.1,0.2-0.1L23.1,25.1z" class="st1"/></g></svg>