<svg xmlns="http://www.w3.org/2000/svg" xmlns:xlink="http://www.w3.org/1999/xlink" id="Layer_1" x="0" y="0" version="1.1" viewBox="0 0 40 40" style="enable-background:new 0 0 40 40" xml:space="preserve"><style type="text/css">.st0{fill:url(#SVGID_1_)}.st1,.st2{fill:none;stroke:url(#SVGID_2_);stroke-miterlimit:10}.st2{stroke:url(#SVGID_3_);stroke-width:.869}.st3{fill:#fff}</style><linearGradient id="SVGID_1_" x1="20" x2="20" y1="-5.803" y2="32.347" gradientUnits="userSpaceOnUse"><stop offset="0" style="stop-color:#0091ff"/><stop offset="1" style="stop-color:#2775c9"/></linearGradient><path d="M37,26.3V13.7c0-2.1-1.1-4.1-3-5.2L23,2.2c-1.9-1.1-4.1-1.1-6,0L6,8.5c-1.9,1.1-3,3.1-3,5.2v12.6	c0,2.1,1.1,4.1,3,5.2l11,6.3c1.9,1.1,4.1,1.1,6,0l11-6.3C35.8,30.4,37,28.5,37,26.3z" class="st0"/><linearGradient id="SVGID_2_" x1="1581.74" x2="2037.908" y1="-148.627" y2="307.541" gradientUnits="userSpaceOnUse"><stop offset="0" style="stop-color:#455df0"/><stop offset="1" style="stop-color:#345d9d"/></linearGradient><rect width="297.2" height="613.1" x="1661.2" y="-227.1" class="st1"/><linearGradient id="SVGID_3_" x1="1297.516" x2="1708.553" y1="-458.814" y2="-47.778" gradientUnits="userSpaceOnUse"><stop offset="0" style="stop-color:#455df0"/><stop offset="1" style="stop-color:#345d9d"/></linearGradient><polygon points="1661.2 -1.7 1206.6 -277.7 1206.6 -367 1661.2 -367" class="st2"/><g><path d="M20,30.5c-5.8,0-10.5-4.7-10.5-10.5S14.2,9.5,20,9.5S30.5,14.2,30.5,20C30.5,25.8,25.8,30.5,20,30.5L20,30.5z M19.4,16.1c-1.2,0.1-2.1,1-2.2,2.2c0,1.1,0.7,1.8,2.1,2.1l1,0.2c1,0.2,1.3,0.5,1.3,1.1c0,0.5-0.7,1.1-1.6,1.1 c-0.6,0.1-1.3-0.3-1.6-0.8c-0.1-0.2-0.3-0.3-0.5-0.3h-0.5c-0.2,0-0.3,0.2-0.3,0.4c0,0,0,0,0,0c0.3,1.1,1.2,1.8,2.3,1.9v0.8 c0,0.3,0.3,0.6,0.6,0.6c0.3,0,0.6-0.3,0.6-0.6v-0.8c1.3,0,2.3-1,2.3-2.3c0-1.1-0.7-1.8-2.2-2.1l-0.9-0.2c-0.9-0.2-1.3-0.5-1.3-1 c0-0.5,0.5-1.1,1.4-1.1c0.6-0.1,1.1,0.2,1.4,0.7c0.1,0.2,0.4,0.4,0.6,0.4h0.4c0.2,0,0.3-0.2,0.3-0.4c-0.2-1-1.1-1.7-2.1-1.8v-0.6 c0-0.3-0.3-0.6-0.6-0.6c-0.3,0-0.6,0.3-0.6,0.6C19.4,15.4,19.4,16.1,19.4,16.1z M12.1,20c0,3.4,2.2,6.4,5.4,7.4h0.1 c0.2,0,0.4-0.2,0.4-0.4l0,0v-0.2c0-0.3-0.2-0.6-0.5-0.8c-3.4-1.4-5-5.2-3.6-8.6c0.7-1.7,2-3,3.6-3.6c0.3-0.1,0.5-0.4,0.5-0.8v-0.2 c0-0.2-0.2-0.4-0.4-0.4c0,0-0.1,0-0.1,0C14.3,13.6,12.1,16.6,12.1,20z M27.9,20c0-3.4-2.2-6.4-5.4-7.4h-0.1c-0.2,0-0.4,0.2-0.4,0.4 v0.1c0,0.4,0.2,0.7,0.5,0.8c3.4,1.4,5,5.2,3.6,8.6c-0.7,1.6-2,3-3.6,3.6c-0.3,0.1-0.5,0.4-0.5,0.8v0.2c0,0.2,0.2,0.4,0.4,0.4 c0,0,0.1,0,0.1,0C25.7,26.4,27.9,23.4,27.9,20z" class="st3"/></g></svg>