<svg xmlns="http://www.w3.org/2000/svg" xmlns:xlink="http://www.w3.org/1999/xlink" id="Layer_1" x="0" y="0" version="1.1" viewBox="0 0 40 40" style="enable-background:new 0 0 40 40" xml:space="preserve"><style type="text/css">.st0{fill:url(#SVGID_1_)}.st1{fill:#fff}.st2{fill:#f4f4f4}.st3{fill:#e8e8e8}.st4{fill:#f2f2f2}</style><linearGradient id="SVGID_1_" x1="-12.583" x2="24.709" y1="-547.178" y2="-547.178" gradientTransform="matrix(0 1 -1 0 -527.1784 13.9581)" gradientUnits="userSpaceOnUse"><stop offset="0" style="stop-color:#00c1be"/><stop offset=".999" style="stop-color:#007b8f"/></linearGradient><path d="M37,26.3V13.7c0-2.1-1.1-4.1-3-5.2L23,2.2c-1.9-1.1-4.1-1.1-6,0L6,8.5c-1.9,1.1-3,3.1-3,5.2v12.6	c0,2.1,1.1,4.1,3,5.2l11,6.3c1.9,1.1,4.1,1.1,6,0l11-6.3C35.8,30.4,37,28.5,37,26.3z" class="st0"/><title>ftx--logo</title><rect width="13.6" height="1.5" x="12.7" y="14.2" class="st1" transform="matrix(0.8885 0.459 -0.459 0.8885 9.0455 -7.2788)"/><rect width="1" height=".7" x="12.9" y="11.2" class="st1"/><rect width="2.8" height="1.3" x="24.2" y="15.4" class="st2"/><rect width="1.7" height="2" x="22.5" y="17.5" class="st1"/><rect width=".1" height="2.9" x="24.1" y="27.1" class="st1"/><g><path d="M12.9,11.2l11.3,5.5l2.9-1.3L15.8,10L12.9,11.2z" class="st2"/><path d="M24.2,16.7l2.9-1.3v2.8l-2.9,1.3" class="st3"/><path d="M12.9,11.2v2.9l7.8,3.8l-7.8,3.8v3L24.2,30v-2.9l-7.7-3.7l7.7-3.9v-2.9L12.9,11.2z" class="st1"/><path d="M24.2,30l2.9-1.3v-9L24.2,21V30z" class="st4"/></g></svg>